<svg width="644" height="104" viewBox="0 0 644 104" fill="none" xmlns="http://www.w3.org/2000/svg">
<g clip-path="url(#clip0_1941_5372)">
<path d="M158.76 52.1398H165.23V70.5298C160.52 74.4998 153.98 76.5198 147.38 76.5198C132.9 76.5198 122.26 66.3498 122.26 52.4098C122.26 38.4698 132.9 28.2998 147.52 28.2998C155 28.2998 161.33 30.7898 165.64 35.5698L161.46 39.7498C157.55 35.9798 153.11 34.2898 147.79 34.2898C136.88 34.2898 129 41.8998 129 52.4098C129 62.7798 136.88 70.5298 147.72 70.5298C151.69 70.5298 155.4 69.6498 158.77 67.4998V52.1398H158.76Z" fill="#1F348C"/>
<path d="M209.54 60.2902H180.58C181.39 66.5502 186.44 70.7302 193.51 70.7302C197.69 70.7302 201.19 69.3202 203.81 66.4202L207.38 70.6002C204.15 74.3702 199.23 76.3902 193.3 76.3902C181.78 76.3902 174.1 68.7802 174.1 58.1402C174.1 47.5702 181.71 39.9502 192.02 39.9502C202.32 39.9502 209.67 47.3602 209.67 58.3402C209.67 58.8802 209.6 59.6902 209.54 60.2902ZM180.57 55.6402H203.47C202.8 49.6502 198.28 45.4002 192.02 45.4002C185.83 45.4102 181.25 49.5802 180.57 55.6402Z" fill="#1F348C"/>
<path d="M251.02 60.2902H222.06C222.87 66.5502 227.92 70.7302 234.99 70.7302C239.17 70.7302 242.67 69.3202 245.29 66.4202L248.86 70.6002C245.63 74.3702 240.71 76.3902 234.78 76.3902C223.26 76.3902 215.58 68.7802 215.58 58.1402C215.58 47.5702 223.19 39.9502 233.5 39.9502C243.8 39.9502 251.15 47.3602 251.15 58.3402C251.16 58.8802 251.09 59.6902 251.02 60.2902ZM222.06 55.6402H244.96C244.29 49.6502 239.77 45.4002 233.51 45.4002C227.31 45.4102 222.73 49.5802 222.06 55.6402Z" fill="#1F348C"/>
<path d="M274.26 59.3498L266.85 66.2198V75.9898H260.38V26.0098H266.85V58.0698L286.31 40.2898H294.12L279.1 55.0398L295.6 75.9898H287.65L274.26 59.3498Z" fill="#1F348C"/>
<path d="M296.48 72.2104L299.17 67.0904C302.2 69.2504 307.05 70.7904 311.7 70.7904C317.69 70.7904 320.19 68.9704 320.19 65.9404C320.19 57.9304 297.63 64.8604 297.63 50.6504C297.63 44.2504 303.36 39.9404 312.51 39.9404C317.16 39.9404 322.41 41.1504 325.51 43.1704L322.75 48.2904C319.52 46.2004 315.95 45.4604 312.44 45.4604C306.78 45.4604 304.02 47.5504 304.02 50.3804C304.02 58.8004 326.65 51.9304 326.65 65.8004C326.65 72.2704 320.72 76.3704 311.23 76.3704C305.3 76.3904 299.44 74.5704 296.48 72.2104Z" fill="#1F348C"/>
<path d="M346.65 69.7198L350.56 65.1398C353.12 68.7798 356.42 70.7298 360.39 70.7298C365.71 70.7298 368.47 67.4998 368.47 61.1698V34.6998H351.43V28.8398H375.14V60.8298C375.14 71.3398 370.02 76.5198 360.39 76.5198C354.8 76.5198 349.68 74.0998 346.65 69.7198Z" fill="#1F348C"/>
<path d="M421.48 40.29V75.99H415.35V70.6C412.72 74.3 408.28 76.39 403.23 76.39C394 76.39 387.87 71.34 387.87 60.83V40.29H394.34V60.09C394.34 67.09 397.84 70.6 403.97 70.6C410.71 70.6 415.02 66.42 415.02 58.75V40.29H421.48Z" fill="#1F348C"/>
<path d="M467.95 55.4404V75.9804H461.48V56.1804C461.48 49.1804 457.98 45.7404 451.85 45.7404C444.98 45.7404 440.53 49.8504 440.53 57.5904V75.9804H434.06V40.2804H440.26V45.6704C442.89 42.0304 447.47 39.9404 453.12 39.9404C461.82 39.9504 467.95 44.9404 467.95 55.4404Z" fill="#1F348C"/>
<path d="M477.1 58.1402C477.1 47.5002 484.98 39.9502 495.96 39.9502C502.36 39.9502 507.68 42.5802 510.51 47.5602L505.59 50.7302C503.3 47.2302 499.8 45.6102 495.89 45.6102C488.89 45.6102 483.63 50.5302 483.63 58.1402C483.63 65.8902 488.88 70.7302 495.89 70.7302C499.8 70.7302 503.3 69.1102 505.59 65.6102L510.51 68.7102C507.68 73.6902 502.36 76.3902 495.96 76.3902C484.98 76.3902 477.1 68.7802 477.1 58.1402Z" fill="#1F348C"/>
<path d="M539.67 73.9005C537.72 75.5805 534.75 76.3905 531.86 76.3905C524.65 76.3905 520.55 72.4205 520.55 65.2105V45.6105H514.49V40.2905H520.55V32.4805H527.02V40.2905H537.26V45.6105H527.02V64.9405C527.02 68.7805 529.04 70.9305 532.61 70.9305C534.5 70.9305 536.31 70.3205 537.66 69.2505L539.67 73.9005Z" fill="#1F348C"/>
<path d="M546.6 29.24C546.6 26.88 548.49 25 550.98 25C553.47 25 555.36 26.82 555.36 29.11C555.36 31.53 553.54 33.42 550.98 33.42C548.49 33.42 546.6 31.6 546.6 29.24ZM547.75 40.29H554.22V75.99H547.75V40.29Z" fill="#1F348C"/>
<path d="M563.51 58.1402C563.51 47.5002 571.39 39.9502 582.1 39.9502C592.81 39.9502 600.62 47.4902 600.62 58.1402C600.62 68.7802 592.81 76.3902 582.1 76.3902C571.39 76.3902 563.51 68.7802 563.51 58.1402ZM594.09 58.1402C594.09 50.5302 588.97 45.6102 582.1 45.6102C575.23 45.6102 570.04 50.5302 570.04 58.1402C570.04 65.7502 575.23 70.7302 582.1 70.7302C588.97 70.7302 594.09 65.7502 594.09 58.1402Z" fill="#1F348C"/>
<path d="M643.72 55.4404V75.9804H637.25V56.1804C637.25 49.1804 633.75 45.7404 627.62 45.7404C620.75 45.7404 616.3 49.8504 616.3 57.5904V75.9804H609.83V40.2804H616.03V45.6704C618.66 42.0304 623.24 39.9404 628.89 39.9404C637.59 39.9504 643.72 44.9404 643.72 55.4404Z" fill="#1F348C"/>
<path d="M96.05 104H7.95C3.56 104 0 100.44 0 96.05V7.95C0 3.56 3.56 0 7.95 0H96.05C100.44 0 104 3.56 104 7.95V96.05C104 100.44 100.44 104 96.05 104Z" fill="#1F348C"/>
<path d="M29.31 62.7695C27.1 61.7895 24.51 62.8295 23.59 65.0695C23.36 65.6395 23.15 66.1695 23.02 66.5795C20.59 74.7695 25.79 84.7795 39.46 91.2695C45.96 94.0595 55.1699 92.0495 59.7599 86.3895C61.4099 84.3495 62.8799 82.1295 64.2099 79.8595C70.2399 69.5395 82.42 48.3695 82.58 48.0895L56.5099 33.0195L51.73 41.2995L67.9599 50.6695C67.7799 50.9795 67.6499 51.1995 67.5299 51.4195C63.0199 59.2295 58.51 67.0495 53.99 74.8595C53.28 76.0795 52.55 77.2895 51.69 78.3995C50.9 79.4195 49.97 80.3595 49.01 81.2295C40.14 85.2395 31.66 75.9895 33.73 69.1895C33.73 69.1795 33.74 69.1595 33.74 69.1495C34.5 66.9995 33.54 64.6295 31.45 63.7095C30.74 63.3995 30.01 63.0795 29.31 62.7695Z" fill="#FCDC24"/>
<path d="M78.9399 38.0298C82.9199 39.4298 86.9499 36.1198 86.3699 31.9398C85.7999 27.8598 84.2999 23.3298 81.5599 20.3798C78.1299 16.6798 73.9399 14.0198 69.3199 12.0498C59.5999 7.90978 50.5299 9.10978 42.3999 15.8198C35.5299 21.4998 31.5499 28.9598 30.1699 37.7498C29.1899 43.9998 30.3099 49.8698 33.9099 55.1298C38.9099 62.4398 46.0399 66.6298 54.4599 68.8598C54.9699 68.9898 58.0499 69.2198 58.2499 68.8598C59.9499 65.8998 61.1599 63.8798 62.8599 60.9298C62.9699 60.7498 63.1099 59.0798 63.2499 58.7998C62.8499 58.7898 60.0899 58.8498 59.8099 58.8398C56.7399 58.7898 53.7399 58.3398 50.8899 57.1098C42.8699 53.6198 39.7599 46.5198 41.4999 39.1898C42.7999 33.7198 45.4299 28.9098 49.3099 24.8398C52.8799 21.0898 57.2599 19.3698 62.4499 20.2398C66.1899 20.8698 69.4599 22.5698 72.0999 25.2898C74.1799 27.8198 74.8999 30.8398 75.0999 33.1298C75.2999 35.3398 76.7399 37.2398 78.8299 37.9698L78.9399 38.0298Z" fill="#FCDC24"/>
<path d="M51.73 50.66C49.49 49.37 48.72 46.5 50.02 44.26L52.77 39.5L60.88 44.18L58.13 48.94C56.83 51.19 53.97 51.96 51.73 50.66Z" fill="#FCDC24"/>
</g>
<defs>
<clipPath id="clip0_1941_5372">
<rect width="643.72" height="104" fill="white"/>
</clipPath>
</defs>
</svg>
